PathFileType	4	(X/Y/Z)	C:/Users/beibeiliu/ov580/test_trc\sequence.30_training_dense_right.trc
DataRate	CameraRate	NumFrames	NumMarkers	Units	OrigDataRate	OrigDataStartFrame	OrigNumFrames
120	120	10	19	mm	120	1	354
Frame#	Time	ThumbCMC			ThumbMCP			ThumbIP			ThumbTip			IndexMCP			IndexPIP			IndexTip			MiddleMCP			MiddlePIP			MiddleTip			RingMCP			RingPIP			RingTip			PinkyMCP			PinkyPIP			PinkyTip			BackHand1			BackHand2			BackHand3	
		X0	Y0	Z0	X1	Y1	Z1	X2	Y2	Z2	X3	Y3	Z3	X4	Y4	Z4	X5	Y5	Z5	X6	Y6	Z6	X7	Y7	Z7	X8	Y8	Z8	X9	Y9	Z9	X10	Y10	Z10	X11	Y11	Z11	X12	Y12	Z12	X13	Y13	Z13	X14	Y14	Z14	X15	Y15	Z15	X16	Y16	Z16	X17	Y17	Z17	X18	Y18	Z18	
0	0	167.028	-30.8628	72.1025	147.326	-37.1702	49.4397	141.917	-40.1076	25.8701	136.335	-42.872	8.18761	176.135	-27.9882	3.64432	173.308	-36.7784	-20.8114	167.48	-41.5728	-38.7548	201.289	-32.5128	-0.595784	198.151	-38.7797	-23.1942	202.756	-47.2837	-47.7604	217.13	-37.3674	7.32491	219.977	-41.6766	-14.8164	225.043	-46.0606	-35.7763	232.856	-43.4121	22.5258	241.514	-45.5511	7.42409	251.246	-43.7373	-4.78741	214.156	-24.0823	50.3154	212.361	-16.685	76.8747	188.749	-14.0894	61.9225	
1	0.00833333	164.452	-28.5038	67.0415	150.544	-35.7787	50.4784	143.275	-37.1162	24.207	132.675	-40.43	10.086	174.969	-26.6628	3.69634	170.279	-32.7216	-20.8643	170.185	-41.3083	-42.3035	196.321	-29.733	-0.0529176	196.329	-37.2732	-27.4747	201.026	-44.5283	-50.2907	213.892	-34.9196	4.36874	222.481	-40.7381	-11.7366	222.136	-44.2678	-36.0009	230.65	-41.8315	22.4629	240.729	-43.7045	5.42965	247.044	-42.1464	-11.3508	212.623	-22.9442	50.0744	211.432	-16.3922	76.1934	187.283	-11.6426	58.5452	
2	0.0166667	162.448	-27.5345	71.5427	150.927	-34.0026	47.2306	141.473	-34.9491	24.2084	135.644	-37.0605	7.80817	174.917	-24.9253	2.66245	169.259	-29.9202	-17.8896	170.602	-38.0809	-40.0578	196.173	-28.7381	-5.67095	195.772	-34.92	-27.8113	201.089	-43.6539	-52.2851	216.047	-33.919	5.44215	217.973	-38.4433	-12.9053	222.092	-43.6564	-35.2621	230.734	-39.1722	20.1751	238.779	-43.567	6.73351	245.184	-41.2653	-8.45701	213.055	-21.2836	48.3158	214.125	-14.7157	72.862	188.782	-9.97784	59.5	
3	0.025	161.313	-26.1555	68.0378	147.778	-32.9542	48.9334	142.219	-33.3061	22.1805	133.336	-36.1167	5.96417	172.295	-22.9049	3.84957	168.911	-30.0416	-22.5173	171.212	-37.3413	-42.2275	199.461	-27.8125	-3.8738	199.079	-34.8304	-28.9018	202.644	-42.533	-50.5712	214.419	-31.642	2.91183	219.483	-37.3548	-17.3813	220.432	-42.6733	-36.6914	229.841	-38.2863	20.6786	236.425	-42.2159	7.44148	247.522	-40.5325	-12.174	210.087	-18.0449	47.4578	211.811	-15.4892	75.1167	184.557	-9.65259	55.4442	
4	0.0333333	160.316	-24.6765	66.3499	148.994	-32.2959	47.5128	141.568	-32.7741	23.134	134.384	-35.4984	4.72141	173.847	-22.7775	-0.299737	168.697	-27.7665	-20.0504	171.226	-36.8624	-41.6045	194.649	-25.4089	-1.33079	196.714	-33.976	-29.169	199.539	-39.2755	-49.8046	212.926	-31.769	7.45576	216.48	-36.3944	-18.6534	220.899	-40.6032	-38.5628	230.395	-38.9148	23.223	238.723	-40.9354	3.00139	247.671	-41.1337	-12.7128	210.329	-18.5317	50.3615	214.741	-13.7177	74.627	189.592	-9.98635	59.0831	
5	0.0416667	161.248	-24.587	65.0908	151.005	-31.9041	46.8432	143.082	-33.7937	27.0581	135.303	-35.3669	7.90644	171.076	-22.4362	1.10886	172.97	-29.2963	-22.3611	165.379	-36.1029	-44.944	197.452	-25.6271	-1.49273	199.606	-32.0563	-25.8906	199.472	-38.0175	-48.4513	212.691	-31.0877	3.68625	219.566	-35.7065	-15.0883	218.635	-39.9363	-34.8754	232.954	-38.9345	20.2814	236.335	-40.4026	5.87695	250.551	-39.5518	-12.5204	214.679	-20.1536	47.6299	212.15	-14.4184	71.5674	189.635	-9.81501	54.9083	
6	0.05	163.323	-25.1888	66.3035	146.862	-30.0515	48.4056	138.151	-31.0582	24.5708	130.752	-34.5062	8.65633	172.086	-22.3874	1.05497	167.258	-28.0654	-22.6721	169.86	-36.6305	-43.3421	194.632	-24.7993	-2.9113	196.795	-31.8775	-26.0669	199.7	-38.8029	-50.2207	216.565	-31.6683	4.43139	220.339	-36.3844	-15.0411	222.013	-40.329	-34.3739	229.239	-38.596	22.1068	240.325	-42.4576	5.06318	250.04	-40.4777	-12.9653	211.172	-18.194	50.1978	209.791	-14.1291	73.777	187.286	-9.86806	55.6565	
7	0.0583333	161.191	-24.8732	70.4996	146.76	-29.1734	48.196	138.614	-30.1466	25.9278	130.066	-31.5022	7.46602	169.833	-20.5795	0.692242	169.787	-28.8296	-24.078	166.864	-35.6986	-45.995	196.144	-26.2179	-4.30149	196.5	-32.316	-27.4963	202.142	-39.994	-53.8731	216.474	-33.0206	3.96612	220.848	-37.2509	-16.1113	218.803	-39.3741	-34.7609	228.541	-38.608	23.5591	235.538	-41.3453	7.34489	248.916	-39.303	-9.52326	210.513	-17.4529	45.8004	210.334	-13.4812	75.59	184.896	-8.15389	58.5942	
8	0.0666667	163.539	-25.1753	65.8566	146.227	-29.812	48.5215	140.088	-30.6386	27.77	129.702	-32.0012	10.0948	171.223	-22.0751	-0.153388	168.236	-27.0099	-22.3975	168.137	-33.7489	-41.2849	196.074	-25.9833	-2.83772	196.66	-33.2965	-29.2334	198.351	-37.6931	-47.9593	212.15	-31.4105	7.55834	216.312	-36.6822	-13.58	220.034	-40.3215	-37.2613	229.544	-39.1902	22.3311	234.707	-41.8557	4.56159	247.553	-41.9703	-6.76985	213.984	-18.9395	47.7631	212.881	-15.4463	72.7691	187.647	-10.2037	59.7046	
9	0.075	160.296	-24.8099	70.8417	145.572	-30.6507	47.8777	138.47	-30.6032	27.6805	129.436	-31.0124	8.41343	172.899	-22.1205	0.301725	166.273	-26.8781	-18.5007	166.606	-35.18	-43.4522	192.441	-25.2207	-5.43022	195.374	-32.8546	-28.6411	196.778	-36.3514	-48.6223	212.473	-31.9387	7.78323	214.562	-36.4546	-13.4533	217.426	-39.9104	-35.4105	230.929	-40.3544	22.9082	235.088	-42.2157	5.76505	243.434	-39.359	-9.65229	207.895	-20.6373	50.4033	211.997	-16.7099	71.953	189.247	-9.19993	60.6424	
